<svg width="1459" height="770" viewBox="0 0 1459 770" fill="none" xmlns="http://www.w3.org/2000/svg">
<path fill-rule="evenodd" clip-rule="evenodd" d="M384.884 38.9397C448.293 44.3837 505.821 49.3228 553 49.3228C762.37 49.3228 951.518 32.6915 1110.15 18.744C1275.79 4.17948 1408.15 -7.45863 1495.5 5.82266C1603.57 22.2536 1581.83 46.6721 1565.46 65.0705C1555.92 75.7853 1548.21 84.4583 1569 88.3227C1577.12 89.8322 1542.69 94.3029 1477 100.906V544.436C1576.17 536.757 1669.06 529.618 1751.54 523.323L1596.04 706.823C1431.16 761.543 1229.22 744.205 1066.16 730.206C1002.75 724.762 945.224 719.823 898.045 719.823C688.676 719.823 499.527 736.454 340.9 750.401H340.9H340.899C175.256 764.966 42.8948 776.604 -44.4551 763.323C-152.52 746.892 -130.789 722.473 -114.415 704.075C-104.879 693.36 -97.1609 684.687 -117.955 680.823C-127.088 679.125 -82.4111 673.684 -3.05176e-05 665.676V222.698C-108.926 231.143 -210.861 238.981 -300.5 245.823L-145 62.3227C19.881 7.60234 221.828 24.9405 384.884 38.9397Z" fill="url(#paint0_linear_157_54)"/>
<defs>
<linearGradient id="paint0_linear_157_54" x1="-209" y1="-14.9998" x2="4455.87" y2="454.364" gradientUnits="userSpaceOnUse">
<stop stop-color="#1D1F1F"/>
<stop offset="0.62352" stop-color="#2D1348"/>
<stop offset="1" stop-color="#42047E"/>
<stop offset="1" stop-color="#1C0235"/>
</linearGradient>
</defs>
</svg>
